<svg width="446" height="76" viewBox="0 0 446 76" fill="none" xmlns="http://www.w3.org/2000/svg">
<rect x="7" y="8" width="432" height="59" rx="14" stroke="#FE0000" stroke-width="4"/>
<g filter="url(#filter0_d_199_23)">
<path d="M40.04 37.4C39.88 37.48 39.88 37.56 40.04 37.64C42.5733 38.9467 43.84 41.12 43.84 44.16C43.84 46.7467 42.96 48.7067 41.2 50.04C39.44 51.3467 37.1333 52 34.28 52H23.92C23.7867 52 23.6667 51.96 23.56 51.88C23.48 51.7733 23.44 51.6533 23.44 51.52V24.48C23.44 24.3467 23.48 24.24 23.56 24.16C23.6667 24.0533 23.7867 24 23.92 24H33.96C40.28 24 43.44 26.56 43.44 31.68C43.44 34.3467 42.3067 36.2533 40.04 37.4ZM29.28 28.84C29.1467 28.84 29.08 28.9067 29.08 29.04V35.28C29.08 35.4133 29.1467 35.48 29.28 35.48H33.96C35.2133 35.48 36.1867 35.1867 36.88 34.6C37.5733 34.0133 37.92 33.2133 37.92 32.2C37.92 31.16 37.5733 30.3467 36.88 29.76C36.1867 29.1467 35.2133 28.84 33.96 28.84H29.28ZM34.28 47.12C35.5067 47.12 36.4667 46.8133 37.16 46.2C37.8533 45.56 38.2 44.6933 38.2 43.6C38.2 42.5067 37.8533 41.6533 37.16 41.04C36.4667 40.4 35.4933 40.08 34.24 40.08H29.28C29.1467 40.08 29.08 40.1467 29.08 40.28V46.92C29.08 47.0533 29.1467 47.12 29.28 47.12H34.28ZM58.4047 52.32C56.3514 52.32 54.538 51.92 52.9647 51.12C51.418 50.32 50.2047 49.2 49.3247 47.76C48.4714 46.2933 48.0447 44.6133 48.0447 42.72V24.48C48.0447 24.3467 48.0847 24.24 48.1647 24.16C48.2714 24.0533 48.3914 24 48.5247 24H53.2047C53.338 24 53.4447 24.0533 53.5247 24.16C53.6314 24.24 53.6847 24.3467 53.6847 24.48V42.76C53.6847 44.1733 54.1114 45.32 54.9647 46.2C55.8447 47.0533 56.9914 47.48 58.4047 47.48C59.818 47.48 60.9514 47.0533 61.8047 46.2C62.6847 45.32 63.1247 44.1733 63.1247 42.76V24.48C63.1247 24.3467 63.1647 24.24 63.2447 24.16C63.3514 24.0533 63.4714 24 63.6047 24H68.2847C68.418 24 68.5247 24.0533 68.6047 24.16C68.7114 24.24 68.7647 24.3467 68.7647 24.48V42.72C68.7647 44.6133 68.3247 46.2933 67.4447 47.76C66.5914 49.2 65.378 50.32 63.8047 51.12C62.258 51.92 60.458 52.32 58.4047 52.32ZM80.9609 51.96C80.8276 51.96 80.7076 51.92 80.6009 51.84C80.5209 51.7333 80.4809 51.6133 80.4809 51.48V41.36C80.4809 41.2533 80.4676 41.1733 80.4409 41.12L72.2009 24.56C72.1476 24.4533 72.1209 24.3733 72.1209 24.32C72.1209 24.1067 72.2676 24 72.5609 24H77.6009C77.8676 24 78.0543 24.12 78.1609 24.36L83.1609 35C83.2409 35.16 83.3209 35.16 83.4009 35L88.4009 24.36C88.5076 24.12 88.6943 24 88.9609 24H94.0809C94.2676 24 94.3876 24.0533 94.4409 24.16C94.5209 24.24 94.5209 24.3733 94.4409 24.56L86.1209 41.12C86.0943 41.1733 86.0809 41.2533 86.0809 41.36V51.48C86.0809 51.6133 86.0276 51.7333 85.9209 51.84C85.8409 51.92 85.7343 51.96 85.6009 51.96H80.9609ZM122.176 24.48C122.176 24.3467 122.216 24.24 122.296 24.16C122.403 24.0533 122.523 24 122.656 24H127.336C127.47 24 127.576 24.0533 127.656 24.16C127.763 24.24 127.816 24.3467 127.816 24.48V51.52C127.816 51.6533 127.763 51.7733 127.656 51.88C127.576 51.96 127.47 52 127.336 52H122.816C122.55 52 122.363 51.8933 122.256 51.68L111.896 34.56C111.843 34.48 111.79 34.4533 111.736 34.48C111.683 34.48 111.656 34.5333 111.656 34.64L111.736 51.52C111.736 51.6533 111.683 51.7733 111.576 51.88C111.496 51.96 111.39 52 111.256 52H106.576C106.443 52 106.323 51.96 106.216 51.88C106.136 51.7733 106.096 51.6533 106.096 51.52V24.48C106.096 24.3467 106.136 24.24 106.216 24.16C106.323 24.0533 106.443 24 106.576 24H111.096C111.363 24 111.55 24.1067 111.656 24.32L121.976 41.36C122.03 41.44 122.083 41.48 122.136 41.48C122.19 41.4533 122.216 41.3867 122.216 41.28L122.176 24.48ZM142.658 52.44C140.578 52.44 138.738 52.0133 137.138 51.16C135.564 50.3067 134.338 49.12 133.458 47.6C132.578 46.0533 132.138 44.28 132.138 42.28V33.72C132.138 31.7467 132.578 30 133.458 28.48C134.338 26.96 135.564 25.7867 137.138 24.96C138.738 24.1067 140.578 23.68 142.658 23.68C144.764 23.68 146.604 24.1067 148.178 24.96C149.778 25.7867 151.018 26.96 151.898 28.48C152.778 30 153.218 31.7467 153.218 33.72V42.28C153.218 44.28 152.778 46.0533 151.898 47.6C151.018 49.1467 149.778 50.3467 148.178 51.2C146.604 52.0267 144.764 52.44 142.658 52.44ZM142.658 47.6C144.124 47.6 145.311 47.1333 146.218 46.2C147.124 45.2667 147.578 44.0267 147.578 42.48V33.68C147.578 32.1333 147.124 30.8933 146.218 29.96C145.338 29 144.151 28.52 142.658 28.52C141.191 28.52 140.004 29 139.098 29.96C138.218 30.8933 137.778 32.1333 137.778 33.68V42.48C137.778 44.0267 138.218 45.2667 139.098 46.2C140.004 47.1333 141.191 47.6 142.658 47.6ZM163.156 52C162.862 52 162.676 51.8667 162.596 51.6L155.516 24.52L155.476 24.36C155.476 24.12 155.622 24 155.916 24H160.876C161.142 24 161.316 24.1333 161.396 24.4L165.196 40.68C165.222 40.7867 165.262 40.84 165.316 40.84C165.369 40.84 165.409 40.7867 165.436 40.68L169.116 24.44C169.196 24.1467 169.369 24 169.636 24H174.476C174.769 24 174.956 24.1333 175.036 24.4L179.036 40.68C179.062 40.76 179.102 40.8133 179.156 40.84C179.209 40.84 179.249 40.7867 179.276 40.68L182.956 24.44C183.036 24.1467 183.209 24 183.476 24H188.196C188.569 24 188.716 24.1733 188.636 24.52L182.076 51.6C181.996 51.8667 181.809 52 181.516 52H176.756C176.489 52 176.316 51.8667 176.236 51.6L172.156 34.28C172.129 34.1733 172.089 34.12 172.036 34.12C171.982 34.12 171.942 34.1733 171.916 34.28L168.116 51.56C168.062 51.8533 167.889 52 167.596 52H163.156ZM210.002 52.44C207.922 52.44 206.082 52.0133 204.482 51.16C202.908 50.3067 201.682 49.12 200.802 47.6C199.922 46.0533 199.482 44.28 199.482 42.28V33.72C199.482 31.7467 199.922 30 200.802 28.48C201.682 26.96 202.908 25.7867 204.482 24.96C206.082 24.1067 207.922 23.68 210.002 23.68C212.108 23.68 213.948 24.1067 215.522 24.96C217.122 25.7867 218.362 26.96 219.242 28.48C220.122 30 220.562 31.7467 220.562 33.72V42.28C220.562 44.28 220.122 46.0533 219.242 47.6C218.362 49.1467 217.122 50.3467 215.522 51.2C213.948 52.0267 212.108 52.44 210.002 52.44ZM210.002 47.6C211.468 47.6 212.655 47.1333 213.562 46.2C214.468 45.2667 214.922 44.0267 214.922 42.48V33.68C214.922 32.1333 214.468 30.8933 213.562 29.96C212.682 29 211.495 28.52 210.002 28.52C208.535 28.52 207.348 29 206.442 29.96C205.562 30.8933 205.122 32.1333 205.122 33.68V42.48C205.122 44.0267 205.562 45.2667 206.442 46.2C207.348 47.1333 208.535 47.6 210.002 47.6ZM240.965 24.48C240.965 24.3467 241.005 24.24 241.085 24.16C241.192 24.0533 241.312 24 241.445 24H246.125C246.259 24 246.365 24.0533 246.445 24.16C246.552 24.24 246.605 24.3467 246.605 24.48V51.52C246.605 51.6533 246.552 51.7733 246.445 51.88C246.365 51.96 246.259 52 246.125 52H241.605C241.339 52 241.152 51.8933 241.045 51.68L230.685 34.56C230.632 34.48 230.579 34.4533 230.525 34.48C230.472 34.48 230.445 34.5333 230.445 34.64L230.525 51.52C230.525 51.6533 230.472 51.7733 230.365 51.88C230.285 51.96 230.179 52 230.045 52H225.365C225.232 52 225.112 51.96 225.005 51.88C224.925 51.7733 224.885 51.6533 224.885 51.52V24.48C224.885 24.3467 224.925 24.24 225.005 24.16C225.112 24.0533 225.232 24 225.365 24H229.885C230.152 24 230.339 24.1067 230.445 24.32L240.765 41.36C240.819 41.44 240.872 41.48 240.925 41.48C240.979 41.4533 241.005 41.3867 241.005 41.28L240.965 24.48ZM269.655 52.32C267.601 52.32 265.788 51.92 264.215 51.12C262.668 50.32 261.455 49.2 260.575 47.76C259.721 46.2933 259.295 44.6133 259.295 42.72V24.48C259.295 24.3467 259.335 24.24 259.415 24.16C259.521 24.0533 259.641 24 259.775 24H264.455C264.588 24 264.695 24.0533 264.775 24.16C264.881 24.24 264.935 24.3467 264.935 24.48V42.76C264.935 44.1733 265.361 45.32 266.215 46.2C267.095 47.0533 268.241 47.48 269.655 47.48C271.068 47.48 272.201 47.0533 273.055 46.2C273.935 45.32 274.375 44.1733 274.375 42.76V24.48C274.375 24.3467 274.415 24.24 274.495 24.16C274.601 24.0533 274.721 24 274.855 24H279.535C279.668 24 279.775 24.0533 279.855 24.16C279.961 24.24 280.015 24.3467 280.015 24.48V42.72C280.015 44.6133 279.575 46.2933 278.695 47.76C277.841 49.2 276.628 50.32 275.055 51.12C273.508 51.92 271.708 52.32 269.655 52.32ZM300.731 24.48C300.731 24.3467 300.771 24.24 300.851 24.16C300.958 24.0533 301.078 24 301.211 24H305.891C306.024 24 306.131 24.0533 306.211 24.16C306.318 24.24 306.371 24.3467 306.371 24.48V51.52C306.371 51.6533 306.318 51.7733 306.211 51.88C306.131 51.96 306.024 52 305.891 52H301.371C301.104 52 300.918 51.8933 300.811 51.68L290.451 34.56C290.398 34.48 290.344 34.4533 290.291 34.48C290.238 34.48 290.211 34.5333 290.211 34.64L290.291 51.52C290.291 51.6533 290.238 51.7733 290.131 51.88C290.051 51.96 289.944 52 289.811 52H285.131C284.998 52 284.878 51.96 284.771 51.88C284.691 51.7733 284.651 51.6533 284.651 51.52V24.48C284.651 24.3467 284.691 24.24 284.771 24.16C284.878 24.0533 284.998 24 285.131 24H289.651C289.918 24 290.104 24.1067 290.211 24.32L300.531 41.36C300.584 41.44 300.638 41.48 300.691 41.48C300.744 41.4533 300.771 41.3867 300.771 41.28L300.731 24.48ZM311.733 52C311.599 52 311.479 51.96 311.373 51.88C311.293 51.7733 311.253 51.6533 311.253 51.52V24.48C311.253 24.3467 311.293 24.24 311.373 24.16C311.479 24.0533 311.599 24 311.733 24H316.413C316.546 24 316.653 24.0533 316.733 24.16C316.839 24.24 316.893 24.3467 316.893 24.48V51.52C316.893 51.6533 316.839 51.7733 316.733 51.88C316.653 51.96 316.546 52 316.413 52H311.733ZM331.36 52.32C329.227 52.32 327.36 51.9867 325.76 51.32C324.16 50.6267 322.92 49.6533 322.04 48.4C321.187 47.12 320.76 45.64 320.76 43.96V43.08C320.76 42.9467 320.8 42.84 320.88 42.76C320.987 42.6533 321.107 42.6 321.24 42.6H325.8C325.934 42.6 326.04 42.6533 326.12 42.76C326.227 42.84 326.28 42.9467 326.28 43.08V43.68C326.28 44.7467 326.774 45.6533 327.76 46.4C328.747 47.12 330.08 47.48 331.76 47.48C333.174 47.48 334.227 47.1867 334.92 46.6C335.614 45.9867 335.96 45.24 335.96 44.36C335.96 43.72 335.747 43.1867 335.32 42.76C334.894 42.3067 334.307 41.92 333.56 41.6C332.84 41.2533 331.68 40.7867 330.08 40.2C328.294 39.5867 326.774 38.96 325.52 38.32C324.294 37.68 323.254 36.8133 322.4 35.72C321.574 34.6 321.16 33.2267 321.16 31.6C321.16 30 321.574 28.6 322.4 27.4C323.227 26.2 324.374 25.28 325.84 24.64C327.307 24 329 23.68 330.92 23.68C332.947 23.68 334.747 24.04 336.32 24.76C337.92 25.48 339.16 26.4933 340.04 27.8C340.947 29.08 341.4 30.5733 341.4 32.28V32.88C341.4 33.0133 341.347 33.1333 341.24 33.24C341.16 33.32 341.054 33.36 340.92 33.36H336.32C336.187 33.36 336.067 33.32 335.96 33.24C335.88 33.1333 335.84 33.0133 335.84 32.88V32.56C335.84 31.44 335.374 30.4933 334.44 29.72C333.534 28.92 332.28 28.52 330.68 28.52C329.427 28.52 328.44 28.7867 327.72 29.32C327.027 29.8533 326.68 30.5867 326.68 31.52C326.68 32.1867 326.88 32.7467 327.28 33.2C327.707 33.6533 328.32 34.0667 329.12 34.44C329.947 34.7867 331.214 35.2667 332.92 35.88C334.814 36.5733 336.294 37.1867 337.36 37.72C338.454 38.2533 339.427 39.0533 340.28 40.12C341.16 41.16 341.6 42.52 341.6 44.2C341.6 46.7067 340.68 48.6933 338.84 50.16C337 51.6 334.507 52.32 331.36 52.32ZM350.89 52C350.597 52 350.41 51.8667 350.33 51.6L343.25 24.52L343.21 24.36C343.21 24.12 343.357 24 343.65 24H348.61C348.877 24 349.05 24.1333 349.13 24.4L352.93 40.68C352.957 40.7867 352.997 40.84 353.05 40.84C353.103 40.84 353.143 40.7867 353.17 40.68L356.85 24.44C356.93 24.1467 357.103 24 357.37 24H362.21C362.503 24 362.69 24.1333 362.77 24.4L366.77 40.68C366.797 40.76 366.837 40.8133 366.89 40.84C366.943 40.84 366.983 40.7867 367.01 40.68L370.69 24.44C370.77 24.1467 370.943 24 371.21 24H375.93C376.303 24 376.45 24.1733 376.37 24.52L369.81 51.6C369.73 51.8667 369.543 52 369.25 52H364.49C364.223 52 364.05 51.8667 363.97 51.6L359.89 34.28C359.863 34.1733 359.823 34.12 359.77 34.12C359.717 34.12 359.677 34.1733 359.65 34.28L355.85 51.56C355.797 51.8533 355.623 52 355.33 52H350.89ZM393.545 52C393.278 52 393.105 51.8667 393.025 51.6L391.825 47.68C391.771 47.5733 391.705 47.52 391.625 47.52H381.785C381.705 47.52 381.638 47.5733 381.585 47.68L380.425 51.6C380.345 51.8667 380.171 52 379.905 52H374.825C374.665 52 374.545 51.96 374.465 51.88C374.385 51.7733 374.371 51.6267 374.425 51.44L383.065 24.4C383.145 24.1333 383.318 24 383.585 24H389.865C390.131 24 390.305 24.1333 390.385 24.4L399.025 51.44C399.051 51.4933 399.065 51.56 399.065 51.64C399.065 51.88 398.918 52 398.625 52H393.545ZM383.025 42.92C382.998 43.08 383.051 43.16 383.185 43.16H390.225C390.385 43.16 390.438 43.08 390.385 42.92L386.785 31.04C386.758 30.9333 386.718 30.8933 386.665 30.92C386.611 30.92 386.571 30.96 386.545 31.04L383.025 42.92ZM414.141 23.96C415.901 23.96 417.447 24.32 418.781 25.04C420.114 25.76 421.141 26.7867 421.861 28.12C422.607 29.4267 422.981 30.9333 422.981 32.64C422.981 34.32 422.594 35.8 421.821 37.08C421.074 38.36 420.007 39.36 418.621 40.08C417.261 40.7733 415.687 41.12 413.901 41.12H408.221C408.087 41.12 408.021 41.1867 408.021 41.32V51.52C408.021 51.6533 407.967 51.7733 407.861 51.88C407.781 51.96 407.674 52 407.541 52H402.861C402.727 52 402.607 51.96 402.501 51.88C402.421 51.7733 402.381 51.6533 402.381 51.52V24.44C402.381 24.3067 402.421 24.2 402.501 24.12C402.607 24.0133 402.727 23.96 402.861 23.96H414.141ZM413.301 36.6C414.527 36.6 415.514 36.2533 416.261 35.56C417.007 34.84 417.381 33.9067 417.381 32.76C417.381 31.5867 417.007 30.64 416.261 29.92C415.514 29.2 414.527 28.84 413.301 28.84H408.221C408.087 28.84 408.021 28.9067 408.021 29.04V36.4C408.021 36.5333 408.087 36.6 408.221 36.6H413.301Z" fill="#FE0000"/>
</g>
<defs>
<filter id="filter0_d_199_23" x="0.5828" y="0.823034" width="445.255" height="74.474" filterUnits="userSpaceOnUse" color-interpolation-filters="sRGB">
<feFlood flood-opacity="0" result="BackgroundImageFix"/>
<feColorMatrix in="SourceAlpha" type="matrix" values="0 0 0 0 0 0 0 0 0 0 0 0 0 0 0 0 0 0 127 0" result="hardAlpha"/>
<feOffset/>
<feGaussianBlur stdDeviation="11.4286"/>
<feComposite in2="hardAlpha" operator="out"/>
<feColorMatrix type="matrix" values="0 0 0 0 0.996078 0 0 0 0 0 0 0 0 0 0 0 0 0 1 0"/>
<feBlend mode="normal" in2="BackgroundImageFix" result="effect1_dropShadow_199_23"/>
<feBlend mode="normal" in="SourceGraphic" in2="effect1_dropShadow_199_23" result="shape"/>
</filter>
</defs>
</svg>
