<svg width="1484" height="312" viewBox="0 0 1484 312" fill="none" xmlns="http://www.w3.org/2000/svg">
<path d="M1411.58 311.611C1399.2 311.611 1388.68 309.259 1380.01 304.554C1371.59 300.098 1364.78 293.784 1359.58 285.613C1354.38 277.689 1350.79 268.28 1348.81 257.386C1347.08 246.491 1346.83 234.606 1348.07 221.73H1346.21C1342.5 229.406 1338.29 236.587 1333.58 243.272C1329.13 249.71 1324.3 255.405 1319.1 260.357C1314.15 265.309 1308.95 269.271 1303.5 272.242C1298.05 274.966 1292.48 276.327 1286.79 276.327C1279.36 276.327 1272.92 274.966 1267.47 272.242C1262.27 269.518 1257.94 265.804 1254.47 261.1C1251.01 256.395 1248.41 250.824 1246.67 244.386C1245.19 237.949 1244.45 231.016 1244.45 223.588C1244.45 209.722 1246.43 195.113 1250.39 179.761C1254.35 164.162 1260.29 149.801 1268.22 136.678C1276.39 123.307 1286.41 112.289 1298.3 103.623C1310.43 94.9566 1324.42 90.6235 1340.27 90.6235C1347.7 90.6235 1353.39 91.6139 1357.35 93.5948C1361.32 95.328 1364.41 97.3088 1366.64 99.5373C1368.87 101.766 1370.72 103.87 1372.21 105.851C1373.7 107.584 1375.68 108.451 1378.15 108.451C1379.64 108.451 1380.88 107.213 1381.87 104.737C1382.86 102.261 1383.97 98.5469 1385.21 93.5948C1386.69 88.6427 1388.55 82.5763 1390.78 75.3958C1393.01 67.9676 1396.1 59.4252 1400.07 49.7686C1403.53 41.1024 1407 34.1695 1410.47 28.9698C1413.93 23.7701 1417.27 19.6846 1420.49 16.7133C1423.96 13.7421 1427.18 11.7612 1430.15 10.7708C1433.37 9.78037 1436.34 9.28516 1439.06 9.28516C1445.5 9.28516 1449.71 12.504 1451.69 18.9418C1453.92 25.1319 1452.56 33.5505 1447.61 44.1975L1405.64 151.534C1401.92 160.943 1399.08 169.857 1397.09 178.276C1395.36 186.694 1394.99 193.999 1395.98 200.189C1397.22 206.379 1399.94 211.331 1404.15 215.045C1408.61 218.512 1415.05 220.245 1423.46 220.245C1430.89 220.245 1436.59 218.759 1440.55 215.788C1444.51 212.569 1447.73 209.226 1450.21 205.76C1452.68 202.046 1454.91 198.703 1456.89 195.732C1459.12 192.513 1462.09 190.904 1465.8 190.904C1471.5 190.904 1475.96 194.618 1479.18 202.046C1482.39 209.474 1484 218.512 1484 229.159C1484 238.072 1482.64 247.358 1479.92 257.014C1477.44 266.671 1473.36 275.585 1467.66 283.756C1461.97 291.927 1454.42 298.612 1445.01 303.812C1435.84 309.011 1424.7 311.611 1411.58 311.611ZM1320.58 199.446C1325.29 199.446 1329.5 198.332 1333.21 196.103C1337.17 193.875 1340.52 191.151 1343.24 187.932C1346.21 184.466 1348.44 180.752 1349.93 176.79C1351.41 172.581 1352.15 168.495 1352.15 164.534C1352.15 159.086 1350.54 154.506 1347.33 150.792C1344.11 146.83 1338.91 144.849 1331.73 144.849C1327.27 144.849 1323.06 145.963 1319.1 148.192C1315.38 150.173 1312.17 152.772 1309.44 155.991C1306.97 159.21 1304.99 162.924 1303.5 167.134C1302.01 171.095 1301.27 175.181 1301.27 179.39C1301.27 184.837 1302.63 189.542 1305.36 193.503C1308.33 197.465 1313.4 199.446 1320.58 199.446Z" fill="#FE0000"/>
<path d="M1252.05 174.562C1253.53 172.333 1255.39 171.219 1257.62 171.219C1260.1 171.219 1262.32 171.962 1264.3 173.448C1266.29 174.686 1267.77 176.295 1268.76 178.276C1269.75 180.257 1269.75 182.114 1268.76 183.847C1266.78 187.313 1264.43 192.018 1261.7 197.96C1258.98 203.655 1255.76 209.969 1252.05 216.902C1248.33 223.835 1244.12 230.892 1239.42 238.073C1234.72 245.005 1229.39 251.319 1223.45 257.014C1217.75 262.709 1211.44 267.414 1204.51 271.128C1197.57 274.594 1189.9 276.328 1181.48 276.328C1173.8 276.328 1167.37 275.213 1162.17 272.985C1156.97 270.756 1152.76 267.785 1149.54 264.071C1146.32 260.357 1143.97 256.148 1142.48 251.443C1141.24 246.739 1140.63 242.034 1140.63 237.33C1140.63 228.664 1141.99 220.121 1144.71 211.703C1147.43 203.036 1150.41 194.989 1153.62 187.561C1156.84 179.885 1159.82 172.829 1162.54 166.391C1165.26 159.953 1166.62 154.506 1166.62 150.049C1166.62 148.068 1165.14 145.221 1162.17 141.506C1159.44 137.545 1154.37 134.202 1146.94 131.478C1145.21 135.192 1143.23 139.526 1141 144.478C1138.77 149.182 1136.42 154.011 1133.94 158.963C1131.71 163.667 1129.48 168.248 1127.26 172.705C1125.27 177.162 1123.54 180.876 1122.06 183.847C1120.82 186.323 1118.96 187.561 1116.48 187.561C1114.26 187.561 1112.03 186.942 1109.8 185.704C1107.82 184.218 1106.21 182.485 1104.97 180.504C1103.98 178.276 1104.1 176.295 1105.34 174.562C1107.08 172.086 1108.93 168.991 1110.91 165.277C1112.89 161.315 1114.87 157.229 1116.86 153.02C1118.84 148.563 1120.82 143.982 1122.8 139.278C1124.78 134.574 1126.51 130.117 1128 125.907C1124.28 124.669 1121.31 122.565 1119.08 119.593C1116.86 116.622 1115.74 111.794 1115.74 105.108C1115.74 101.394 1116.48 97.5565 1117.97 93.5948C1119.7 89.6331 1121.93 86.0429 1124.66 82.824C1127.63 79.6051 1131.09 77.0053 1135.05 75.0244C1139.26 72.796 1143.84 71.6818 1148.8 71.6818C1157.46 71.6818 1166.01 73.0436 1174.42 75.7672C1182.84 78.4909 1190.39 81.9574 1197.08 86.1667C1203.77 90.376 1209.09 95.0804 1213.05 100.28C1217.26 105.48 1219.36 110.556 1219.36 115.508C1219.36 120.708 1218.5 125.784 1216.76 130.736C1215.28 135.44 1213.42 140.145 1211.19 144.849C1209.21 149.554 1207.36 154.382 1205.62 159.334C1204.14 164.286 1203.39 169.61 1203.39 175.305C1203.39 180.504 1205.13 184.837 1208.59 188.304C1212.06 191.77 1218 193.504 1226.42 193.504C1232.12 193.504 1236.82 191.77 1240.53 188.304C1244.5 184.837 1248.33 180.257 1252.05 174.562Z" fill="#FE0000"/>
<path d="M1105.5 174.562C1106.49 172.828 1108.34 171.962 1111.07 171.962C1114.29 171.962 1117.26 173.2 1119.98 175.676C1122.95 177.904 1123.69 180.628 1122.21 183.847C1119.49 189.542 1116.27 195.361 1112.55 201.303C1108.84 207.246 1104.38 212.693 1099.18 217.645C1093.98 222.597 1087.92 226.683 1080.98 229.902C1074.05 233.12 1066.13 234.73 1057.21 234.73H1052.76C1043.35 247.358 1032.33 257.509 1019.7 265.185C1007.32 272.613 994.073 276.328 979.96 276.328C971.541 276.328 963.742 274.966 956.561 272.242C949.628 269.271 943.562 265.061 938.362 259.614C933.41 254.167 929.448 247.605 926.477 239.93C923.753 232.254 922.392 223.588 922.392 213.931C922.392 200.065 924.868 185.828 929.82 171.219C935.019 156.61 942.2 143.363 951.361 131.478C960.523 119.593 971.294 109.813 983.674 102.137C996.054 94.4614 1009.67 90.6235 1024.53 90.6235C1032.2 90.6235 1039.26 91.7378 1045.7 93.9662C1052.38 96.1946 1058.08 99.9087 1062.78 105.108C1067.74 110.061 1071.57 116.622 1074.3 124.793C1077.27 132.964 1078.75 142.868 1078.75 154.506C1078.75 167.629 1076.9 180.38 1073.18 192.761H1075.78C1081.23 192.761 1086.43 191.399 1091.38 188.675C1096.33 185.704 1101.04 180.999 1105.5 174.562ZM1001.13 199.446C1005.83 199.446 1010.04 198.332 1013.76 196.103C1017.72 193.875 1021.06 191.151 1023.79 187.932C1026.76 184.466 1028.99 180.752 1030.47 176.79C1031.96 172.581 1032.7 168.495 1032.7 164.534C1032.7 159.086 1031.09 154.506 1027.87 150.792C1024.65 146.83 1019.45 144.849 1012.27 144.849C1007.82 144.849 1003.61 145.963 999.644 148.192C995.93 150.173 992.712 152.772 989.988 155.991C987.512 159.21 985.531 162.924 984.045 167.134C982.56 171.095 981.817 175.181 981.817 179.39C981.817 184.837 983.179 189.542 985.902 193.504C988.874 197.465 993.95 199.446 1001.13 199.446Z" fill="#FE0000"/>
<path d="M858.155 276.327C845.032 276.327 835.871 272.737 830.671 265.557C825.472 258.128 822.872 248.967 822.872 238.072C822.872 228.663 824.11 218.388 826.586 207.246C828.814 196.103 831.785 185.209 835.5 174.562C844.909 147.325 853.203 123.431 860.384 102.88C867.564 82.3287 874.25 65.1202 880.44 51.2543C886.878 37.3884 893.192 26.9889 899.382 20.056C905.819 12.8754 912.752 9.28516 920.181 9.28516C927.856 9.28516 932.685 12.1326 934.665 17.8275C936.646 23.5225 934.789 32.3125 929.094 44.1975C918.695 64.9964 909.905 84.062 902.724 101.394C895.544 118.727 889.849 135.192 885.64 150.792C884.154 156.239 882.916 161.562 881.926 166.762C880.935 171.714 880.688 176.171 881.183 180.133C881.926 184.094 883.659 187.313 886.382 189.789C889.106 192.265 893.192 193.503 898.639 193.503C905.077 193.503 910.648 191.894 915.352 188.675C920.304 185.209 924.761 180.504 928.723 174.562C930.209 172.333 932.066 171.219 934.294 171.219C936.77 171.219 938.999 171.962 940.979 173.447C942.96 174.685 944.446 176.295 945.436 178.276C946.427 180.257 946.427 182.114 945.436 183.847C943.455 187.313 941.103 192.018 938.38 197.96C935.656 203.655 932.437 209.969 928.723 216.902C925.009 223.835 920.8 230.892 916.095 238.072C911.391 245.005 906.067 251.319 900.125 257.014C894.43 262.709 888.116 267.414 881.183 271.128C874.25 274.594 866.574 276.327 858.155 276.327Z" fill="#FE0000"/>
<path d="M665.775 276.327C655.128 276.327 647.576 272.737 643.119 265.557C638.91 258.128 636.805 248.967 636.805 238.072C636.805 228.663 638.043 218.388 640.519 207.246C642.748 196.103 645.719 185.209 649.433 174.562C658.842 147.325 667.137 123.431 674.317 102.88C681.498 82.3287 688.183 65.1202 694.373 51.2543C700.811 37.3884 707.125 26.9889 713.315 20.056C719.753 12.8754 726.686 9.28516 734.114 9.28516C741.79 9.28516 746.494 12.1326 748.227 17.8275C750.208 23.5225 748.475 32.3125 743.028 44.1975C739.809 51.6257 736.219 59.4252 732.257 67.5962C728.543 75.5196 724.829 83.6905 721.115 92.1091C717.648 100.28 714.305 108.699 711.087 117.365C708.115 126.031 705.763 134.821 704.03 143.735C703.535 146.706 704.03 149.058 705.516 150.792C707.249 152.277 709.353 153.144 711.829 153.391C714.305 153.391 716.782 152.772 719.258 151.534C721.734 150.296 723.467 148.439 724.457 145.963C732.133 128.631 740.552 115.136 749.713 105.48C758.874 95.5756 770.14 90.6235 783.511 90.6235C794.653 90.6235 802.824 93.5948 808.024 99.5373C813.471 105.48 816.195 112.165 816.195 119.593C816.195 144.849 800.844 157.477 770.141 157.477C763.703 157.725 759.122 159.458 756.398 162.677C753.675 165.896 752.313 169.733 752.313 174.19C752.313 180.38 755.284 185.209 761.227 188.675C767.169 191.894 775.34 193.503 785.74 193.503C796.634 193.503 806.415 192.142 815.081 189.418C823.747 186.694 830.432 181.742 835.137 174.562C837.365 171.343 839.594 169.733 841.822 169.733C844.298 169.486 846.403 170.105 848.136 171.59C850.117 173.076 851.479 175.057 852.222 177.533C852.964 180.009 852.841 182.114 851.85 183.847C848.879 189.047 844.917 196.846 839.965 207.246C835.013 217.397 828.823 227.673 821.395 238.072C814.214 248.224 805.548 257.138 795.396 264.814C785.492 272.49 773.978 276.327 760.855 276.327C747.98 276.327 738.447 270.633 732.257 259.243C726.314 247.605 721.61 228.911 718.143 203.16C717.401 198.456 715.791 195.113 713.315 193.132C710.839 190.904 708.239 190.037 705.516 190.532C702.792 190.78 700.316 192.513 698.087 195.732C696.106 198.703 695.116 203.036 695.116 208.731V236.958C695.116 241.663 694.745 246.367 694.002 251.072C693.259 255.776 691.773 259.986 689.545 263.7C687.564 267.414 684.593 270.509 680.631 272.985C676.917 275.213 671.965 276.327 665.775 276.327Z" fill="#FE0000"/>
<path d="M649.236 174.562C650.721 172.333 652.578 171.219 654.807 171.219C657.283 171.219 659.511 171.962 661.492 173.448C663.473 174.686 664.958 176.295 665.949 178.276C666.939 180.257 666.939 182.114 665.949 183.847C663.968 187.313 661.616 192.018 658.892 197.96C656.169 203.655 652.95 209.969 649.236 216.902C645.522 223.835 641.312 230.892 636.608 238.073C631.903 245.005 626.58 251.319 620.637 257.014C614.942 262.709 608.628 267.414 601.695 271.128C594.762 274.594 587.087 276.328 578.668 276.328C570.992 276.328 564.555 275.213 559.355 272.985C554.155 270.756 549.946 267.785 546.727 264.071C543.508 260.357 541.156 256.148 539.67 251.443C538.432 246.739 537.813 242.034 537.813 237.33C537.813 228.664 539.175 220.121 541.899 211.703C544.622 203.036 547.594 194.989 550.812 187.561C554.031 179.885 557.003 172.829 559.726 166.391C562.45 159.953 563.812 154.506 563.812 150.049C563.812 148.068 562.326 145.221 559.355 141.506C556.631 137.545 551.555 134.202 544.127 131.478C542.394 135.192 540.413 139.526 538.185 144.478C535.956 149.182 533.604 154.011 531.128 158.963C528.899 163.667 526.671 168.248 524.443 172.705C522.462 177.162 520.728 180.876 519.243 183.847C518.005 186.323 516.148 187.561 513.672 187.561C511.443 187.561 509.215 186.942 506.986 185.704C505.005 184.218 503.396 182.485 502.158 180.504C501.168 178.276 501.291 176.295 502.529 174.562C504.263 172.086 506.12 168.991 508.101 165.277C510.081 161.315 512.062 157.229 514.043 153.02C516.024 148.563 518.005 143.982 519.986 139.278C521.966 134.574 523.7 130.117 525.185 125.907C521.471 124.669 518.5 122.565 516.272 119.593C514.043 116.622 512.929 111.794 512.929 105.108C512.929 101.394 513.672 97.5565 515.157 93.5948C516.891 89.6331 519.119 86.0429 521.843 82.824C524.814 79.6051 528.28 77.0053 532.242 75.0244C536.451 72.796 541.032 71.6818 545.984 71.6818C554.65 71.6818 563.193 73.0436 571.611 75.7672C580.03 78.4909 587.582 81.9574 594.267 86.1667C600.953 90.376 606.276 95.0804 610.238 100.28C614.447 105.48 616.552 110.556 616.552 115.508C616.552 120.708 615.685 125.784 613.952 130.736C612.466 135.44 610.609 140.145 608.381 144.849C606.4 149.554 604.543 154.382 602.81 159.334C601.324 164.286 600.581 169.61 600.581 175.305C600.581 180.504 602.314 184.837 605.781 188.304C609.247 191.77 615.19 193.504 623.608 193.504C629.303 193.504 634.008 191.77 637.722 188.304C641.684 184.837 645.522 180.257 649.236 174.562Z" fill="#FE0000"/>
<path d="M502.683 174.562C503.674 172.828 505.531 171.962 508.254 171.962C511.473 171.962 514.444 173.2 517.168 175.676C520.139 177.904 520.882 180.628 519.397 183.847C516.673 189.542 513.454 195.361 509.74 201.303C506.026 207.246 501.569 212.693 496.369 217.645C491.17 222.597 485.103 226.683 478.17 229.902C471.237 233.12 463.314 234.73 454.4 234.73H449.943C440.534 247.358 429.516 257.509 416.888 265.185C404.508 272.613 391.261 276.328 377.147 276.328C368.729 276.328 360.929 274.966 353.749 272.242C346.816 269.271 340.749 265.061 335.55 259.614C330.598 254.167 326.636 247.605 323.665 239.93C320.941 232.254 319.579 223.588 319.579 213.931C319.579 200.065 322.055 185.828 327.007 171.219C332.207 156.61 339.388 143.363 348.549 131.478C357.71 119.593 368.481 109.813 380.861 102.137C393.242 94.4614 406.86 90.6235 421.716 90.6235C429.392 90.6235 436.449 91.7378 442.887 93.9662C449.572 96.1946 455.267 99.9087 459.971 105.108C464.923 110.061 468.761 116.622 471.485 124.793C474.456 132.964 475.942 142.868 475.942 154.506C475.942 167.629 474.085 180.38 470.371 192.761H472.971C478.418 192.761 483.618 191.399 488.57 188.675C493.522 185.704 498.226 180.999 502.683 174.562ZM398.318 199.446C403.022 199.446 407.231 198.332 410.945 196.103C414.907 193.875 418.25 191.151 420.973 187.932C423.945 184.466 426.173 180.752 427.659 176.79C429.144 172.581 429.887 168.495 429.887 164.534C429.887 159.086 428.278 154.506 425.059 150.792C421.84 146.83 416.64 144.849 409.46 144.849C405.003 144.849 400.794 145.963 396.832 148.192C393.118 150.173 389.899 152.772 387.175 155.991C384.699 159.21 382.718 162.924 381.233 167.134C379.747 171.095 379.004 175.181 379.004 179.39C379.004 184.837 380.366 189.542 383.09 193.504C386.061 197.465 391.137 199.446 398.318 199.446Z" fill="#FE0000"/>
<path d="M64.2536 291.927C52.8637 291.927 43.0833 290.07 34.9123 286.356C26.7414 282.889 20.056 278.185 14.8563 272.242C9.65661 266.299 5.94253 259.614 3.71408 252.186C1.23803 244.758 0 237.206 0 229.53C0 221.854 1.23803 214.426 3.71408 207.246C5.94253 200.065 9.2852 193.627 13.7421 187.932C17.9514 182.237 23.0273 177.657 28.9698 174.19C35.16 170.724 41.9691 168.991 49.3973 168.991C50.8829 168.991 52.1209 169.486 53.1113 170.476C54.3494 171.219 54.9684 172.209 54.9684 173.447C54.9684 181.618 58.4348 188.304 65.3678 193.504C72.3007 198.456 80.9669 200.932 91.3664 200.932C97.0613 200.932 103.128 199.694 109.565 197.218C116.003 194.742 122.317 191.027 128.507 186.075C134.697 180.876 140.516 174.314 145.963 166.391C151.658 158.22 156.734 148.563 161.191 137.421C164.41 129.002 167.629 120.336 170.848 111.422C174.314 102.261 177.657 93.7186 180.876 85.7952C183.352 79.3575 186.571 74.7768 190.532 72.0531C194.494 69.3295 199.322 67.9676 205.017 67.9676C212.941 67.9676 217.893 69.8247 219.874 73.5388C222.102 77.0052 222.597 81.8335 221.359 88.0237C220.121 93.9662 217.645 101.394 213.931 110.308C210.465 119.222 206.874 128.383 203.16 137.792C199.446 147.201 196.103 156.239 193.132 164.905C190.161 173.324 188.675 180.38 188.675 186.075C188.675 191.027 190.037 195.113 192.761 198.332C195.484 201.551 200.065 203.16 206.503 203.16C214.674 203.16 222.102 200.313 228.787 194.618C235.72 188.923 241.663 181.618 246.615 172.705C251.567 163.543 255.405 153.391 258.129 142.249C260.852 131.107 262.214 120.089 262.214 109.194C262.214 101.271 261.224 93.7186 259.243 86.538C257.262 79.3575 253.672 73.0436 248.472 67.5962C243.52 62.1489 236.834 57.8158 228.416 54.597C219.997 51.3781 209.35 49.7687 196.475 49.7687C187.809 49.7687 179.266 50.8829 170.848 53.1113C162.677 55.0922 155.249 58.311 148.563 62.7679C142.125 67.2248 136.926 72.9197 132.964 79.8527C129.002 86.538 127.022 94.709 127.022 104.366C127.022 109.813 128.26 114.394 130.736 118.108C133.459 121.574 136.926 123.307 141.135 123.307C142.868 123.555 143.735 124.917 143.735 127.393C143.735 129.869 142.868 132.964 141.135 136.678C139.649 140.145 137.297 143.982 134.078 148.192C131.107 152.153 127.517 155.868 123.307 159.334C119.098 162.8 114.394 165.772 109.194 168.248C103.994 170.476 98.4231 171.59 92.4806 171.59C84.8048 171.59 78.1195 170.105 72.4245 167.134C66.7296 164.162 61.9013 160.201 57.9396 155.249C53.978 150.049 51.0067 144.23 49.0259 137.792C47.045 131.107 46.0546 124.298 46.0546 117.365C46.0546 101.518 49.5211 86.538 56.454 72.4245C63.6346 58.0634 73.6626 45.5594 86.538 34.9123C99.4135 24.2653 114.641 15.8467 132.221 9.65659C150.049 3.21886 169.61 0 190.904 0C214.674 0 234.606 3.21886 250.7 9.65659C266.795 16.0943 279.794 24.7605 289.698 35.6552C299.602 46.5498 306.659 59.1777 310.868 73.5388C315.325 87.6523 317.554 102.632 317.554 118.479C317.554 138.288 314.583 157.848 308.64 177.162C302.697 196.475 294.526 213.807 284.127 229.159C273.975 244.263 262.214 256.519 248.843 265.928C235.473 275.337 221.359 280.042 206.503 280.042C190.904 280.042 178.647 275.461 169.733 266.299C161.067 257.138 156.239 244.758 155.249 229.159C144.849 248.472 131.85 263.823 116.251 275.213C100.899 286.356 83.5668 291.927 64.2536 291.927Z" fill="#FE0000"/>
</svg>
